<svg width="91" height="85" viewBox="0 0 91 85" fill="none" xmlns="http://www.w3.org/2000/svg">
<path d="M27.9673 70.8793C27.6441 70.7044 27.2873 70.5907 26.9171 70.5447C26.5469 70.4986 26.1706 70.5211 25.8097 70.6109C25.4488 70.7007 25.1104 70.856 24.8137 71.0679C24.5171 71.2799 24.2681 71.5443 24.0808 71.8462C23.8936 72.148 23.7719 72.4814 23.7226 72.8271C23.6733 73.1729 23.6974 73.5244 23.7935 73.8615C23.8896 74.1986 24.0559 74.5147 24.2828 74.7918C24.5097 75.0689 24.7928 75.3015 25.116 75.4764L27.9673 70.8793ZM10.1958 61.5364C10.3752 61.8511 10.6206 62.1289 10.9174 62.3531C11.2142 62.5773 11.5563 62.7435 11.9233 62.8416C12.2903 62.9397 12.6747 62.9678 13.0535 62.9242C13.4324 62.8806 13.798 62.7662 14.1285 62.5878C14.459 62.4094 14.7477 62.1707 14.9774 61.8859C15.207 61.601 15.3729 61.2759 15.4652 60.9299C15.5575 60.584 15.5742 60.2242 15.5145 59.872C15.4547 59.5198 15.3196 59.1825 15.1173 58.8801L10.1958 61.5364ZM80.5729 42.4999C80.5729 51.1885 76.8777 59.5213 70.3003 65.665C63.7228 71.8088 54.8019 75.2603 45.5 75.2603V80.5728C68.0111 80.5728 86.2604 63.5268 86.2604 42.4999H80.5729ZM10.427 42.4999C10.427 33.8113 14.1222 25.4786 20.6997 19.3348C27.2771 13.191 36.198 9.7395 45.5 9.7395V4.427C22.9888 4.427 4.73954 21.473 4.73954 42.4999H10.427ZM58.7708 50.4687C52.9885 50.4687 47.4431 48.3231 43.3544 44.504C39.2657 40.6849 36.9687 35.5051 36.9687 30.1041H31.2812C31.2812 36.9141 34.1774 43.4451 39.3327 48.2605C44.488 53.0759 51.4801 55.7812 58.7708 55.7812V50.4687ZM77.4448 40.6193C75.5057 43.6259 72.7671 46.1129 69.495 47.8387C66.2229 49.5646 62.5285 50.4706 58.7708 50.4687V55.7812C63.5083 55.7835 68.1659 54.6417 72.2916 52.4667C76.4173 50.2916 79.8708 47.1572 82.317 43.3676L77.4448 40.6193ZM36.9687 30.1041C36.9671 26.5942 37.9372 23.1435 39.7848 20.0872C41.6324 17.0309 44.2948 14.4728 47.5133 12.6614L44.571 8.11388C40.5142 10.3982 37.1587 13.6235 34.8301 17.4765C32.5015 21.3296 31.279 25.6795 31.2812 30.1041H36.9687ZM45.5 9.7395C45.1154 9.73103 44.7501 9.58079 44.4838 9.32159C44.321 9.17367 44.2122 8.98159 44.1729 8.77263C44.1577 8.66284 44.1653 8.34408 44.571 8.11388L47.5133 12.6614C49.4206 11.5847 50.0348 9.612 49.8111 8.06075C49.576 6.44929 48.2186 4.427 45.5 4.427V9.7395ZM82.317 43.3676C82.0668 43.7466 81.7256 43.7537 81.608 43.7395C81.3843 43.7028 81.1787 43.6012 81.0203 43.4491C80.7428 43.2003 80.5819 42.8591 80.5729 42.4999H86.2604C86.2604 39.9605 84.0953 38.6926 82.3701 38.473C80.7094 38.2641 78.5974 38.8378 77.4448 40.6193L82.317 43.3676ZM45.5 75.2603C39.3444 75.2699 33.2956 73.7584 27.9673 70.8793L25.116 75.4764C31.3107 78.8242 38.3431 80.5825 45.5 80.5728V75.2603ZM15.1173 58.8801C12.0344 53.9021 10.4162 48.2509 10.427 42.4999H4.73954C4.72917 49.1838 6.61156 55.7514 10.1958 61.5364L15.1173 58.8801Z" fill="black"/>
</svg>
