<svg width="163" height="42" viewBox="0 0 163 42" fill="none" xmlns="http://www.w3.org/2000/svg">
<path d="M19.2 8.52C18.1867 7.98667 17.0933 7.53333 15.92 7.16C14.7467 6.78666 13.6133 6.6 12.52 6.6C11.0267 6.6 9.84 6.94666 8.96 7.64C8.08 8.30666 7.64 9.22667 7.64 10.4C7.64 11.2267 7.93333 11.9467 8.52 12.56C9.10667 13.1733 9.86667 13.7067 10.8 14.16C11.7333 14.6133 12.72 15.04 13.76 15.44C14.64 15.76 15.5067 16.1467 16.36 16.6C17.24 17.0267 18.0267 17.56 18.72 18.2C19.44 18.84 20 19.64 20.4 20.6C20.8267 21.5333 21.04 22.68 21.04 24.04C21.04 25.5867 20.6533 26.9867 19.88 28.24C19.1333 29.4933 18.04 30.4933 16.6 31.24C15.1867 31.96 13.4667 32.32 11.44 32.32C10.2133 32.32 9.01333 32.1867 7.84 31.92C6.69333 31.6267 5.6 31.2533 4.56 30.8C3.54667 30.32 2.62667 29.8 1.8 29.24L3.72 25.92C4.36 26.3733 5.09333 26.8133 5.92 27.24C6.74667 27.64 7.6 27.96 8.48 28.2C9.38667 28.44 10.24 28.56 11.04 28.56C11.92 28.56 12.7867 28.4133 13.64 28.12C14.4933 27.8 15.2 27.32 15.76 26.68C16.32 26.0133 16.6 25.1467 16.6 24.08C16.6 23.1733 16.3467 22.4133 15.84 21.8C15.36 21.16 14.7067 20.6133 13.88 20.16C13.08 19.7067 12.2133 19.3067 11.28 18.96C10.3733 18.6133 9.45333 18.2267 8.52 17.8C7.58667 17.3733 6.72 16.8667 5.92 16.28C5.12 15.6667 4.46667 14.92 3.96 14.04C3.48 13.1333 3.24 12.0267 3.24 10.72C3.24 9.17333 3.6 7.82667 4.32 6.68C5.06667 5.50667 6.09333 4.58667 7.4 3.92C8.70667 3.25333 10.2133 2.88 11.92 2.8C13.8667 2.8 15.56 3.04 17 3.52C18.44 4 19.72 4.57333 20.84 5.24L19.2 8.52ZM25.5613 17.52C25.5613 15.52 25.9346 13.6267 26.6813 11.84C27.4546 10.0533 28.5213 8.46667 29.8813 7.08C31.2413 5.69333 32.8146 4.61333 34.6013 3.84C36.3879 3.04 38.3079 2.64 40.3613 2.64C42.3879 2.64 44.2946 3.04 46.0813 3.84C47.8679 4.61333 49.4546 5.69333 50.8413 7.08C52.2279 8.46667 53.3079 10.0533 54.0813 11.84C54.8546 13.6267 55.2413 15.52 55.2413 17.52C55.2413 19.5733 54.8546 21.4933 54.0813 23.28C53.3079 25.0667 52.2279 26.64 50.8413 28C49.4813 29.36 47.8946 30.4267 46.0813 31.2C44.2946 31.9467 42.3879 32.32 40.3613 32.32C38.3079 32.32 36.3879 31.9467 34.6013 31.2C32.8146 30.4533 31.2413 29.4133 29.8813 28.08C28.5213 26.72 27.4546 25.1467 26.6813 23.36C25.9346 21.5467 25.5613 19.6 25.5613 17.52ZM29.9613 17.52C29.9613 19.0133 30.2279 20.4133 30.7613 21.72C31.3213 23 32.0813 24.1333 33.0413 25.12C34.0013 26.08 35.1079 26.84 36.3613 27.4C37.6413 27.9333 39.0146 28.2 40.4813 28.2C41.9213 28.2 43.2679 27.9333 44.5213 27.4C45.7746 26.84 46.8679 26.08 47.8013 25.12C48.7613 24.1333 49.5079 23 50.0413 21.72C50.5746 20.4133 50.8413 19.0133 50.8413 17.52C50.8413 16.0267 50.5613 14.64 50.0013 13.36C49.4679 12.0533 48.7213 10.9067 47.7613 9.92C46.8279 8.93333 45.7213 8.16 44.4413 7.6C43.1879 7.04 41.8413 6.76 40.4013 6.76C38.9079 6.76 37.5346 7.04 36.2813 7.6C35.0279 8.16 33.9213 8.93333 32.9613 9.92C32.0013 10.9067 31.2546 12.0533 30.7213 13.36C30.2146 14.6667 29.9613 16.0533 29.9613 17.52ZM61.6191 2.96H65.8991V27.88H80.4191V32H61.6191V2.96ZM83.6981 32L96.4581 1.8H96.6981L109.458 32H104.578L95.2981 8.48L98.3781 6.44L87.8981 32H83.6981ZM91.4581 21.12H101.778L103.258 24.8H90.1781L91.4581 21.12ZM140.135 2.96H159.215V7.08H144.415V15.36H157.575V19.48H144.415V27.88H159.775V32H140.135V2.96Z" fill="black"/>
<path d="M116.449 29.1857C116.329 29.1137 116.195 29.0669 116.057 29.0479C115.919 29.0289 115.778 29.0382 115.643 29.0752C115.508 29.1122 115.382 29.1761 115.271 29.2634C115.16 29.3507 115.067 29.4595 114.997 29.5838C114.927 29.7081 114.882 29.8454 114.863 29.9878C114.845 30.1302 114.854 30.2749 114.89 30.4137C114.926 30.5525 114.988 30.6826 115.073 30.7967C115.157 30.9108 115.263 31.0066 115.384 31.0786L116.449 29.1857ZM109.809 25.3386C109.876 25.4682 109.968 25.5826 110.079 25.6749C110.19 25.7673 110.318 25.8357 110.455 25.8761C110.592 25.9165 110.736 25.928 110.877 25.9101C111.019 25.8921 111.155 25.845 111.279 25.7716C111.402 25.6981 111.51 25.5998 111.596 25.4825C111.682 25.3652 111.744 25.2314 111.778 25.0889C111.813 24.9464 111.819 24.7983 111.797 24.6533C111.774 24.5083 111.724 24.3694 111.648 24.2449L109.809 25.3386ZM136.104 17.5001C136.104 21.0777 134.723 24.5089 132.266 27.0387C129.808 29.5684 126.475 30.9897 123 30.9897V33.1772C131.411 33.1772 138.229 26.1582 138.229 17.5001H136.104ZM109.896 17.5001C109.896 13.9224 111.276 10.4913 113.734 7.96151C116.191 5.43172 119.524 4.0105 123 4.0105V1.823C114.589 1.823 107.771 8.84196 107.771 17.5001H109.896ZM127.958 20.7813C125.798 20.7813 123.726 19.8979 122.198 18.3253C120.671 16.7527 119.812 14.6199 119.812 12.3959H117.687C117.687 15.2 118.77 17.8893 120.696 19.8721C122.622 21.8549 125.234 22.9688 127.958 22.9688V20.7813ZM134.935 16.7257C134.211 17.9637 133.188 18.9878 131.965 19.6984C130.743 20.4091 129.362 20.7821 127.958 20.7813V22.9688C129.728 22.9698 131.469 22.4997 133.01 21.604C134.551 20.7084 135.842 19.4178 136.756 17.8574L134.935 16.7257ZM119.812 12.3959C119.812 10.9507 120.174 9.5298 120.865 8.27132C121.555 7.01284 122.55 5.95951 123.752 5.21362L122.653 3.34112C121.137 4.28173 119.883 5.60978 119.013 7.19632C118.143 8.78287 117.687 10.574 117.687 12.3959H119.812ZM123 4.0105C122.856 4.00701 122.72 3.94515 122.62 3.83841C122.559 3.77751 122.519 3.69842 122.504 3.61237C122.498 3.56716 122.501 3.43591 122.653 3.34112L123.752 5.21362C124.465 4.77029 124.694 3.958 124.611 3.31925C124.523 2.65571 124.016 1.823 123 1.823V4.0105ZM136.756 17.8574C136.662 18.0134 136.535 18.0163 136.491 18.0105C136.407 17.9954 136.33 17.9535 136.271 17.8909C136.168 17.7885 136.107 17.648 136.104 17.5001H138.229C138.229 16.4545 137.42 15.9324 136.776 15.842C136.155 15.7559 135.366 15.9922 134.935 16.7257L136.756 17.8574ZM123 30.9897C120.7 30.9936 118.44 30.3712 116.449 29.1857L115.384 31.0786C117.698 32.4572 120.326 33.1811 123 33.1772V30.9897ZM111.648 24.2449C110.496 22.1951 109.892 19.8681 109.896 17.5001H107.771C107.767 20.2523 108.47 22.9566 109.809 25.3386L111.648 24.2449Z" fill="black"/>
</svg>
