<svg width="26" height="28" viewBox="0 0 26 28" fill="none" xmlns="http://www.w3.org/2000/svg">
<path d="M22.423 17.733L17.6272 15.4219C17.4413 15.3352 17.2382 15.2998 17.0364 15.3189C16.8346 15.338 16.6404 15.411 16.4714 15.5312C16.4579 15.5405 16.445 15.5507 16.4328 15.5619L13.9141 17.8741C13.858 17.9109 13.7944 17.9322 13.7289 17.9362C13.6633 17.9402 13.5979 17.9268 13.5383 17.897C11.8889 17.0395 10.1817 15.2152 9.3854 13.4597C9.35723 13.396 9.34416 13.3258 9.34735 13.2554C9.35054 13.185 9.3699 13.1165 9.40368 13.0561L11.5568 10.2987C11.567 10.2856 11.5761 10.2714 11.5852 10.2572C11.6965 10.0754 11.7641 9.86666 11.7818 9.64976C11.7996 9.43285 11.7669 9.21461 11.6868 9.01468L9.53673 3.85875C9.43293 3.59761 9.25327 3.37978 9.02472 3.23798C8.79617 3.09618 8.53107 3.03806 8.26923 3.07234C6.99114 3.25381 5.81809 3.93013 4.96919 4.97496C4.12029 6.01979 3.65359 7.36168 3.65626 8.75C3.65626 17.1937 10.0344 24.0625 17.875 24.0625C19.1642 24.0654 20.4102 23.5628 21.3804 22.6486C22.3506 21.7344 22.9786 20.4711 23.1471 19.0947C23.1787 18.814 23.1253 18.5298 22.9948 18.2844C22.8643 18.0391 22.6638 17.8457 22.423 17.733ZM22.3438 18.9853C22.2003 20.151 21.6676 21.2205 20.8452 21.9939C20.0227 22.7672 18.9669 23.1916 17.875 23.1875C10.4833 23.1875 4.46876 16.7103 4.46876 8.75C4.46498 7.57416 4.85899 6.43708 5.57714 5.55137C6.29529 4.66566 7.28839 4.09195 8.37079 3.9375C8.38703 3.93641 8.40331 3.93641 8.41954 3.9375C8.49969 3.93823 8.57784 3.96448 8.64417 4.01294C8.71049 4.0614 8.76202 4.12991 8.79228 4.20984L10.9363 9.36578C10.9613 9.42879 10.9722 9.49726 10.9681 9.56565C10.9641 9.63404 10.9452 9.70045 10.9129 9.75953L8.76079 12.5158C8.75064 12.53 8.74048 12.5431 8.73134 12.5584C8.61668 12.7473 8.54916 12.9647 8.53528 13.1898C8.52141 13.4149 8.56165 13.6401 8.65212 13.8436C9.5347 15.7894 11.3547 17.7352 13.1818 18.6856C13.372 18.7824 13.5823 18.8245 13.7922 18.8079C14.002 18.7912 14.2042 18.7163 14.3792 18.5905L14.4168 18.5598L16.9386 16.2498C16.9925 16.2143 17.0536 16.1932 17.1166 16.188C17.1796 16.1829 17.2429 16.194 17.3012 16.2203L22.0959 18.5347C22.1769 18.571 22.2447 18.6344 22.2894 18.7157C22.334 18.7969 22.3531 18.8915 22.3438 18.9853Z" fill="black"/>
</svg>
